<?xml version="1.0" encoding="UTF-8"?>
<svg id="Ebene_1" data-name="Ebene 1" xmlns="http://www.w3.org/2000/svg" xmlns:xlink="http://www.w3.org/1999/xlink" viewBox="0 0 4800 1000">
  <defs>
    <style>
      .cls-1 {
        letter-spacing: -.01em;
      }

      .cls-1, .cls-2, .cls-3, .cls-4 {
        fill: #df1f00;
      }

      .cls-1, .cls-2, .cls-4 {
        font-family: Bitter-Regular, Bitter;
        font-variation-settings: 'wght' 400;
      }

      .cls-5 {
        fill: #fdc525;
      }

      .cls-2 {
        letter-spacing: -.02em;
      }

      .cls-6 {
        letter-spacing: 0em;
      }

      .cls-7 {
        letter-spacing: -.01em;
      }

      .cls-7, .cls-8, .cls-9, .cls-10 {
        fill: #293d7f;
      }

      .cls-7, .cls-9, .cls-10 {
        font-family: Bitter-Black, Bitter;
        font-variation-settings: 'wght' 900;
        font-weight: 800;
      }

      .cls-11 {
        letter-spacing: 0em;
      }

      .cls-12 {
        fill: none;
      }

      .cls-13 {
        clip-path: url(#clippath-1);
      }

      .cls-14 {
        font-family: BarlowCondensed-Light, 'Barlow Condensed';
        font-size: 269.63px;
        font-weight: 300;
      }

      .cls-15 {
        fill: #aeadab;
      }

      .cls-16 {
        letter-spacing: 0em;
      }

      .cls-17 {
        fill: #555456;
      }

      .cls-9 {
        letter-spacing: 0em;
      }

      .cls-18 {
        font-size: 538.09px;
      }

      .cls-19 {
        fill: #222126;
      }

      .cls-20 {
        fill: #fefefe;
      }

      .cls-21 {
        fill: #140f13;
      }

      .cls-22 {
        clip-path: url(#clippath);
      }

      .cls-23 {
        letter-spacing: 0em;
      }
    </style>
    <clipPath id="clippath">
      <polygon class="cls-12" points="331.53 343.82 420.48 297.2 526.58 249.74 629.48 286.12 752.61 337.67 774 376.53 774 511.15 755.28 586.35 725.97 657.4 656.12 717.19 578.53 763.98 540.79 786.63 420.48 701.62 345.39 610.33 312.28 486.97 319.89 355.24 319.89 347.63 331.53 343.82"/>
    </clipPath>
    <clipPath id="clippath-1">
      <rect class="cls-12" x="63.4" y="231.09" width="942.78" height="565.67" transform="translate(-51.76 59.96) rotate(-6.12)"/>
    </clipPath>
  </defs>
  <g class="cls-22">
    <g class="cls-13">
      <g id="flag">
        <rect class="cls-5" x="83.51" y="621.78" width="942.78" height="188.56" transform="translate(-73.2 63.26) rotate(-6.12)"/>
        <rect class="cls-3" x="63.4" y="434.3" width="942.78" height="188.56" transform="translate(-53.32 60.05) rotate(-6.12)"/>
        <rect x="43.29" y="246.82" width="942.78" height="188.56" transform="translate(-33.44 56.83) rotate(-6.12)"/>
      </g>
    </g>
  </g>
  <g>
    <path class="cls-3" d="M748.16,647.63c27.76-41.96,44.84-93.84,50.75-154.21h0c4.24-43.33,2.54-86.44.07-126.57-1.59-25.84-19.54-47.44-44.66-53.75-100.08-25.14-150.11-56.2-171.03-72.48-21.41-16.66-51.31-16.66-72.72,0-20.92,16.28-70.95,47.35-171.03,72.48-25.12,6.31-43.07,27.91-44.66,53.75-2.47,40.13-4.17,83.24.07,126.57,5.92,60.37,22.99,112.25,50.75,154.21,18.57,28.07,44.54,55.04,77.19,80.17,27.8,21.39,60.65,41.63,97.62,60.14,8.27,4.14,17.34,6.21,26.41,6.21s18.14-2.07,26.41-6.21c36.97-18.51,69.81-38.75,97.62-60.14,32.65-25.13,58.63-52.1,77.19-80.16ZM647.1,696.77c-25.82,19.87-56.53,38.77-91.27,56.17-5.56,2.79-12.21,2.79-17.77,0-34.74-17.4-65.45-36.29-91.27-56.17-29.22-22.49-52.24-46.29-68.42-70.74-24.2-36.58-39.16-82.48-44.44-136.43-3.98-40.6-2.33-81.83.04-120.35.54-8.74,6.62-16.05,15.13-18.19,45.95-11.54,131.15-37.22,185.54-79.56,3.62-2.82,7.97-4.23,12.31-4.23s8.69,1.41,12.31,4.23c54.39,42.34,139.59,68.02,185.54,79.56,8.51,2.14,14.59,9.45,15.13,18.19,2.37,38.52,4.01,79.75.04,120.35-5.29,53.95-20.24,99.85-44.44,136.43-16.17,24.45-39.19,48.25-68.42,70.74Z"/>
    <path class="cls-8" d="M532.96,97v121.36c4.59-.94,9.27-1.42,13.98-1.42s9.39.48,13.98,1.42v-121.03c15.61-5.56,26.8-20.47,26.8-38,0-22.28-18.06-40.33-40.33-40.33s-40.33,18.06-40.33,40.33c0,17.19,10.76,31.86,25.91,37.67Z"/>
    <path class="cls-8" d="M993.83,446.64c-17.19,0-31.86,10.76-37.67,25.91h-144.43c-.4,7.12-.93,14.26-1.63,21.42l-.06.55c-.2,2.01-.41,4-.63,5.99h146.41c5.56,15.62,20.47,26.8,38,26.8,22.28,0,40.33-18.06,40.33-40.33s-18.06-40.33-40.33-40.33Z"/>
    <path class="cls-8" d="M960.72,296.04v44.15c0,4.62-3.76,8.39-8.39,8.39h-145.52c1.82,5.6,2.96,11.49,3.34,17.59.21,3.43.42,6.89.62,10.37h141.56c20.04,0,36.35-16.31,36.35-36.35v-44.15c15.39-5.69,26.35-20.48,26.35-37.84,0-22.28-18.06-40.33-40.33-40.33s-40.33,18.06-40.33,40.33c0,17.36,10.97,32.15,26.35,37.84Z"/>
    <path class="cls-8" d="M701.37,286.12v-123.75c0-4.62,3.76-8.39,8.38-8.39h122.18c5.69,15.39,20.48,26.35,37.84,26.35,22.28,0,40.33-18.06,40.33-40.33,0-22.28-18.06-40.33-40.33-40.33-17.36,0-32.15,10.97-37.84,26.35h-122.19c-20.04,0-36.35,16.31-36.35,36.35v113.67c8.61,3.35,17.91,6.73,27.97,10.08Z"/>
    <path class="cls-8" d="M560.92,902.67v-98.74c-4.59.93-9.28,1.41-13.98,1.41s-9.39-.48-13.98-1.41v99.07c-15.15,5.8-25.91,20.48-25.91,37.67,0,22.28,18.06,40.33,40.33,40.33s40.33-18.06,40.33-40.33c0-17.53-11.18-32.43-26.8-38Z"/>
    <path class="cls-8" d="M988.68,677.9v-44.15c0-20.04-16.31-36.35-36.35-36.35h-165.88c-3.75,9.66-7.9,18.98-12.45,27.96h178.34c4.62,0,8.39,3.76,8.39,8.39v44.15c-15.38,5.69-26.35,20.48-26.35,37.84,0,22.28,18.06,40.33,40.33,40.33s40.33-18.06,40.33-40.33c0-17.36-10.97-32.16-26.35-37.84Z"/>
    <path class="cls-8" d="M869.78,793.6c-17.36,0-32.16,10.97-37.84,26.35h-122.18c-4.62,0-8.39-3.76-8.39-8.39v-94.38c-7.44,6.6-15.3,13.09-23.58,19.46-1.45,1.11-2.91,2.22-4.38,3.33v71.59c0,20.04,16.3,36.35,36.34,36.35h122.19c5.69,15.38,20.48,26.35,37.84,26.35,22.28,0,40.33-18.06,40.33-40.33,0-22.28-18.06-40.33-40.33-40.33Z"/>
    <path class="cls-8" d="M138.06,500.5h146.41c-.22-1.99-.43-3.99-.63-5.99-.72-7.34-1.27-14.67-1.68-21.97h-144.44c-5.81-15.15-20.48-25.91-37.67-25.91-22.28,0-40.33,18.06-40.33,40.33s18.06,40.33,40.33,40.33c17.53,0,32.43-11.18,38-26.8Z"/>
    <path class="cls-8" d="M105.21,296.04v44.15c0,20.04,16.31,36.35,36.35,36.35h141.56c.2-3.48.4-6.93.62-10.37.37-6.1,1.52-11.99,3.34-17.59h-145.52c-4.62,0-8.39-3.76-8.39-8.39v-44.15c15.38-5.69,26.35-20.48,26.35-37.84,0-22.28-18.06-40.33-40.33-40.33s-40.33,18.06-40.33,40.33c0,17.36,10.97,32.16,26.35,37.84Z"/>
    <path class="cls-8" d="M224.11,180.33c17.36,0,32.16-10.97,37.84-26.35h122.18c4.62,0,8.39,3.76,8.39,8.39v123.75c10.05-3.35,19.35-6.73,27.95-10.08v-113.67c0-20.04-16.3-36.35-36.34-36.35h-122.19c-5.69-15.38-20.48-26.35-37.84-26.35-22.28,0-40.33,18.06-40.33,40.33,0,22.28,18.06,40.33,40.33,40.33Z"/>
    <path class="cls-8" d="M133.17,677.9v-44.15c0-4.62,3.76-8.39,8.39-8.39h178.34c-4.55-8.98-8.7-18.3-12.45-27.96h-165.88c-20.04,0-36.35,16.31-36.35,36.35v44.15c-15.39,5.69-26.35,20.48-26.35,37.84,0,22.28,18.06,40.33,40.33,40.33s40.33-18.06,40.33-40.33c0-17.36-10.97-32.15-26.35-37.84Z"/>
    <path class="cls-8" d="M416.1,736.65c-8.28-6.37-16.14-12.86-23.58-19.46v94.38c0,4.62-3.76,8.39-8.38,8.39h-122.18c-5.69-15.38-20.48-26.35-37.84-26.35-22.28,0-40.33,18.06-40.33,40.33,0,22.28,18.06,40.33,40.33,40.33,17.36,0,32.15-10.97,37.84-26.35h122.19c20.04,0,36.35-16.31,36.35-36.35v-71.59c-1.48-1.11-2.94-2.21-4.38-3.33Z"/>
  </g>
  <g>
    <path class="cls-21" d="M408.97,336.49c67.75-40.29,150.61-48.93,227.33-35.7-11.72,4.48-22.98,10.03-33.92,16.16,30.92,7.96,60.21,21.7,86.83,39.23-11.45.26-22.84,1.53-34.12,3.46,34.22,22.38,62.13,52.82,87.3,84.72-14.69-7.66-29.85-14.62-45.77-19.29,11.94,13.74,22.01,29.01,31.25,44.66,21.94,38.44,36.85,82.14,35.55,126.82-6.81-21.88-19.17-42-35.42-58.15,4.28,21.09,5.92,42.82,3.62,64.26-2.03,19.4-6.11,39.01-15.46,56.3.51-21.2-4.32-42.72-14.78-61.22.39,34.31-6.87,70.4-27.76,98.31,8.53-21.18,10.11-45.08,5.24-67.33-9.84,34.6-31.71,66.86-63.33,84.89,20.82-19.71,25.85-52.02,15.33-78.14-5.6,25.28-14.09,50.79-30.23,71.4.22-16.48-2.86-32.93-8.12-48.52-7.75,13.25-12.28,28.02-17.72,42.28-11.92-18.68-14.98-41.3-18.91-62.7-7.27,17.23-10.88,35.78-12.96,54.28-11.02-13.94-16.56-31.5-18.82-48.94-2.55-16.74-3.48-33.66-4.97-50.51-3.06,12.95-3.84,26.34-4.07,39.62-.14,17.42,1.63,35.65,10.9,50.84-8.32-5.56-14.6-13.61-20.07-21.87-11.35-17.04-17.87-36.72-22.21-56.59-7.68,14.38-11.77,30.65-12.22,46.93-10.98-22.89-7.61-49.38-4.97-73.78-9.56,12.44-13.88,28.14-15.33,43.55-5.19-27.89,9.07-55.47,3.41-83.23-4.48,5.63-8.94,11.26-13.59,16.75-.55-11.41-1.85-23.48-8.38-33.21-7.87-11.92-21.41-18.14-33.96-23.79-17.55,5.43-34.99,11.29-52.42,17.09-5.68,21.18-4.1,44.72,7.12,63.86-16.57-10.2-30.22-25.07-39.14-42.36-18.41-35.41-14.59-79.8,5.48-113.67,13.68-22.81,36.41-39.22,61.5-47.44-1.65-5.94-.65-12.47,2.84-17.57,6.18-9.27,15.72-15.52,24.94-21.42Z"/>
    <path class="cls-20" d="M418.74,340.57c56.12-31.39,122.21-41.6,185.78-35.94-11.22,4.23-22.13,9.35-32.37,15.62,25.6,2.21,50.46,10.12,73.69,20.87-33.34-6.14-68.62-8.58-101.44,1.56,6.08.13,12.2-.71,18.25.21-32.81,2.39-63.47,15.93-91.69,32.08-10.12,6.35-24.09,9.66-34.49,2.11-3.46-2.19-2.83-6.58-1.33-9.77-3.39,1.18-6.79,2.43-10.36,2.95.27-1.4.54-2.8.77-4.2-1.01,1.25-1.91,2.59-2.73,3.97-11.1-1.2-22.68-1.43-33.36,2.31-1.61-5.38,1.49-10.48,5.09-14.23,6.91-7.27,15.56-12.57,24.19-17.55Z"/>
    <path class="cls-3" d="M544.4,342.68c32.82-10.14,68.11-7.7,101.44-1.56,4.1,1.41,7.83,3.83,11.7,5.8-14.72,1.93-30,3.89-43.31,10.86,27.87,8.92,53,25.01,75.47,43.5-14.3-3.84-29.39-7.37-44.19-4.5,19.77,14.83,33.59,35.78,47.3,55.97,12.78,19.18,25.31,38.55,37.41,58.16-20.33-23.99-39.24-49.51-61.99-71.36,16.93,22.89,33.31,46.41,46.39,71.77-13.17-15.26-25.27-31.71-40.59-44.96,11.51,18.62,22.78,37.6,30.78,58.05-14.54-18.83-29.44-37.65-47.16-53.64,13.09,22.07,23.91,45.66,30.83,70.41-9.81-18.09-21.25-35.57-35.59-50.4,5.31,16.53,7.42,33.89,8.29,51.17,1.16,33.02-2.17,65.97-5.4,98.78-1.04-25.55-5.78-50.96-13.92-75.23-4.09-11.87-8.58-23.75-15.33-34.41.02,23.77-7.44,47.33-21.11,66.77,3.25-24.06-2.54-48.15-8.04-71.45-14.59,27.8-18.66,59.73-19.8,90.71-3.12-37.89.3-76.31,9.08-113.28,2.83-8.39,3.1-17.86-1.33-25.77,5.24,3.03,9.96,6.86,14.43,10.93-2.55-7.3-5.95-14.29-9.86-20.95,5.36.14,10.74.14,16.11.25-5.32-5.49-12.05-9.98-19.73-11.17,2.62,2.08,5.25,4.15,7.68,6.46-6.41-.64-12.32-3.44-17.97-6.35,3.38,4.62,6.73,9.3,9.33,14.42-13.54-10.08-27.93-19.53-44.42-23.98,6.06-1.4,12.36-.45,18.45-1.34-8.22-1.96-16.44-4.18-24.24-7.47,7.31.01,15.19.11,21.62-3.87,6.38-4.91,13.26-9.33,21.35-10.71-4.54-1.19-9.27-.5-13.8.3,7.76-5.98,17.39-8.59,27-9.47-5.39-1.41-10.99-.97-16.49-.87,5.46-2.84,11.21-5.41,17.38-6.13,19.77-2.71,39.68,1.39,58.63,6.8-14.89-7.53-31.19-12.88-47.88-14.21-12.04-2.76-25.71-3.89-34.8-13.28-6.24-6.56-9.67-16.28-8.17-25.25,4.24-9.99,15.73-13.43,25.06-17-31.47,3.84-63.32,12.04-89.92,29.91-6.88,4.44-13.1,10.18-21.02,12.79-11.09,3.83-23.81,3.21-34.38-1.91-4.65-2.21-7.74-6.7-9.23-11.52-.64,1.99-1.08,4.05-1.76,6.03-2.84-2.3-3.49-6.67-3.91-10.19,3.58-.52,6.97-1.77,10.36-2.95-1.5,3.19-2.12,7.58,1.33,9.77,10.41,7.54,24.38,4.24,34.49-2.11,28.22-16.16,58.88-29.69,91.69-32.08-6.05-.92-12.17-.09-18.25-.21Z"/>
    <path class="cls-3" d="M389.46,372.35c10.68-3.74,22.25-3.5,33.36-2.31-1.01,2.42-2.01,4.84-2.88,7.32-9.7-1.44-19.63-2.9-29.34-.74-.39-1.42-.76-2.84-1.13-4.27Z"/>
    <path class="cls-5" d="M511.95,379.02c4.38-2.64,8.51-5.76,13.09-8.01,8.06,3.53,14.03,11.63,14.65,20.47,1.04,10.35-4.82,20.83-13.98,25.64-12.29,6.92-30.23,1.15-34.65-12.63,1.47-3.66,4.59-6.5,7.07-9.55,2.12,9.15,15.02,12.36,21.54,5.87,3.53-2.79,4.02-7.42,4.05-11.57,2.1-3.85-.92-7.54-5.06-7.32-2.36-.64-4.37-2.15-6.7-2.9Z"/>
    <path class="cls-20" d="M515.63,387.84c-1.04-2.6,1.05-4.64,3.02-5.93,4.14-.22,7.16,3.47,5.06,7.32-2.5,1.61-7.02,2.13-8.08-1.39Z"/>
    <path class="cls-20" d="M386.68,383.85c2.81-.77,5.33,1.05,7.81,2.07,6.08,2.62,12.33,5.16,17.52,9.36.89.66,1.88,2.43.42,3.03-7.09,4.25-14.55,8.12-20.62,13.8,11.84-5.02,23.14-11.38,35.46-15.25,11.29,12.15,24.02,22.94,38.57,31.02,21.1,12.48,44,23.14,68.54,26.3,5.56-.42,10.86,2.35,14.48,6.44-11.8,0-23.18-3.58-34.76-5.41-42.14-7.8-86.74-10.7-127.98,3.1l-.85.03c31.62-12.97,66.98-12.69,100.47-9.23-6.43-2.8-12.22-6.88-18.45-9.98-12.77-.7-25.44,2.27-37.73,5.45,10.85-4.97,22.61-7.82,34.44-9.23-3.52-2.63-7.24-4.97-10.92-7.37-5.2-3.5-12.08-1.56-17.38-4.88-9.98-6.17-20.92-11.91-32.85-12.51-9.64,3.38-17.98,9.96-25.17,17.09-10.89,13.36-13.27,31.64-12.12,48.34-12.73,12.37-23.71,27.03-29.32,44.03,1.73-10.5,4.43-21.23,10.28-30.26,4.38-6.21,11.01-10.55,18.04-13.21-2.77-17.47,1.69-35.44,10.81-50.42,2.04-4.03,5.65-6.95,8.76-10.12,8.28-7.6,17.74-13.82,27.74-18.91-5.65-5.29-13.24-7.52-20-10.97-4.4-2.29-9.29,0-13.57,1.44-16.57,6.55-31.6,17.09-43.42,30.43-8,8.95-12.44,20.44-15.05,32.01-2.73,11.21-3.95,22.72-4.42,34.23-.8-17.03,1.79-34.28,8.03-50.17,6.41-15.98,19.92-27.75,33.94-37.06,9.05-5.77,18.74-10.96,29.31-13.2Z"/>
    <path class="cls-17" d="M378.29,387.62c4.28-1.44,9.17-3.73,13.57-1.44,6.77,3.45,14.35,5.68,20,10.97-10,5.09-19.46,11.31-27.74,18.91-11.97,1.14-22.61,7.54-32.98,13.18,1.08-2.15,2.11-4.35,2.55-6.74,8.73-9.94,19.52-17.68,30.46-24.98,2.28-1.76,6.07-4.3,4.73-7.63-2.96-2.4-7.22-1.49-10.59-.58-13.71,4.5-25.81,13.78-33.73,25.84-6.64,10.36-11.2,21.88-14.94,33.56-.14-.29-.43-.88-.57-1.17-3.3,2.43-4.52,6.53-7.15,9.51-1.97-1.13-.75-4.95-2.09-7,2.61-11.57,7.05-23.06,15.05-32.01,11.82-13.34,26.85-23.88,43.42-30.43Z"/>
    <path class="cls-20" d="M378.29,389.32c3.38-.92,7.63-1.82,10.59.58,1.34,3.33-2.45,5.87-4.73,7.63-10.94,7.29-21.74,15.04-30.46,24.98-5.94,6.34-11.03,13.47-14.98,21.2-7.85,14.81-12.32,31.19-14.34,47.77-.82-14.36,1.01-29,5.25-42.76,3.74-11.68,8.29-23.2,14.94-33.56,7.92-12.06,20.01-21.34,33.73-25.84Z"/>
    <path class="cls-21" d="M405.03,408.62c6.69-4.19,14.22-7.11,21.7-9.62,7.01,7.1,13.74,14.47,20.12,22.14-12.86-7.11-27.37-10.55-41.82-12.52Z"/>
    <path class="cls-20" d="M553.38,417.94c11.87-14.54,32.02-16.69,49.53-17.24,16.69,1.33,32.99,6.68,47.88,14.21-18.96-5.41-38.86-9.52-58.63-6.8-6.18.72-11.92,3.28-17.38,6.13,5.51-.1,11.11-.54,16.49.87-9.61.89-19.24,3.49-27,9.47,4.54-.8,9.26-1.49,13.8-.3-8.09,1.38-14.97,5.81-21.35,10.71-6.43,3.98-14.31,3.89-21.62,3.87-6.78-1.13-13.66-2.21-20.16-4.49,9.27.91,18.57,2.13,27.88,1.02-2.88-1.99-6.3-2.94-9.31-4.71,8.42-.61,14.97-6.32,19.86-12.74Z"/>
    <path class="cls-15" d="M377.67,427.69c7.19-7.13,15.53-13.71,25.17-17.09,11.93.6,22.88,6.34,32.85,12.51,5.3,3.32,12.18,1.38,17.38,4.88,3.68,2.39,7.4,4.73,10.92,7.37-11.83,1.41-23.59,4.26-34.44,9.23,12.29-3.18,24.96-6.15,37.73-5.45,6.23,3.1,12.01,7.18,18.45,9.98-33.49-3.47-68.85-3.75-100.47,9.23l.85-.03c-8.09,4.26-13.87,11.67-20.57,17.71-1.14-16.69,1.24-34.97,12.12-48.34Z"/>
    <path class="cls-19" d="M351.14,429.24c10.36-5.64,21.01-12.04,32.98-13.18-3.11,3.17-6.72,6.09-8.76,10.12-7.89,3.71-12.68,11.41-18.55,17.48.75-4.42,3.08-8.33,5.16-12.22-8.64,4.07-15.13,11.46-21.44,18.42-.26-2.14-.65-4.3-1.81-6.15,3.95-7.74,9.05-14.87,14.98-21.2-.44,2.38-1.47,4.58-2.55,6.74Z"/>
    <path class="cls-21" d="M397.22,420.26c2.78-1.83,5.84-5.05,9.42-3.07,8.48,3.77,17.74,6.68,24.82,12.88-8.88,14.03-27.11,15.33-41.01,21.77-7.44,5.06-16.84-3.03-18.16-10.46,5.87-9.57,16.16-14.7,24.94-21.12Z"/>
    <path class="cls-20" d="M431.45,430.07l.37-.54c-.41,5.81-6.27,8.97-10.67,11.77-10.17,5.15-21.33,7.93-31.87,12.24-7.29,3.89-18.31-4.26-17.01-12.16,1.32,7.43,10.72,15.52,18.16,10.46,13.9-6.44,32.14-7.74,41.01-21.77Z"/>
    <path class="cls-20" d="M429.52,465.1c28.53-6.02,58.31-4.78,86.49,2.47,12.79,3.29,26.12,7.44,39.43,5.02,3.96-.47,7.13-4.27,5.32-8.24.78.44,1.57.89,2.35,1.37-.29-.01-.85-.03-1.14-.05,3.04,2.54,2.8,7.47-1.09,9.03-10.14,4.34-21.37.8-31.94.83,7.96,2.66,16.51,3.44,24.28,6.72-14.58-.01-28.92-3.25-43.34-5.07-26.84-5.56-54.47-7.09-81.76-4.44,1.01-1.05,2.12-2.1,3.57-2.5,10.52-3.27,21.62-3.49,32.48-4.63-22.59-1.49-44.95,4.29-66.14,11.6-7.07,2.8-14.36,5.38-20.65,9.74-3.71,1.93-7.43,3.87-11.13,5.85,18.17-14.53,40.61-23.09,63.26-27.71Z"/>
    <path class="cls-15" d="M398.04,477.22c21.19-7.31,43.55-13.09,66.14-11.6-10.86,1.14-21.97,1.36-32.48,4.63-1.45.4-2.56,1.45-3.57,2.5,27.28-2.64,54.91-1.12,81.76,4.44-44.1-4.61-90.44-6.89-132.49,9.77,6.29-4.36,13.58-6.94,20.65-9.74Z"/>
    <path class="cls-15" d="M561.97,465.68c.29.02.85.04,1.14.05,1.8.68,3.26,2.02,4.89,3.02-.15.26-.44.77-.58,1.02,2.19,2.02,4.33,5.45,1.97,8.2-4,4.3-10.72,4.54-16.18,4.29-7.77-3.28-16.32-4.07-24.28-6.72,10.57-.03,21.81,3.51,31.94-.83,3.89-1.56,4.13-6.5,1.09-9.03Z"/>
    <path class="cls-19" d="M421.38,494.05c10.81.34,20.01,6.72,28.56,12.69,37.96,28.46,71.57,63.48,95.57,104.6,4.1-13.7,3.91-28.5,3.28-42.72,5.72,6.39,9.35,14.62,12.36,22.6-2.8-2.83-3.88-7.05-7.28-9.32-2.02,14.89-3.19,30.25-8.5,44.41-5.65-20.57-17.36-39.24-32.95-53.72-6.59,15.62-10.02,33.35-20.83,46.86,1.05-11.56-1.41-23.04-4.65-34.06,3.38,3.23,4.73,7.92,7.93,11.29,3.87-8.01,3.79-17.43,2.12-26-2.92-12.43-11.97-22-20.92-30.55-15.47-13.98-31.29-27.62-47.86-40.29-2.29-1.91-5.3-3.08-6.83-5.77Z"/>
  </g>
  <text class="cls-18" transform="translate(1132.93 516.67) scale(.93 1)"><tspan class="cls-2" x="0" y="0">P</tspan><tspan class="cls-4" x="307.25" y="0">at</tspan><tspan class="cls-1" x="796.37" y="0">r</tspan><tspan class="cls-4" x="1027.21" y="0">iot</tspan><tspan class="cls-7" x="1691.74" y="0">C</tspan><tspan class="cls-10" x="2016.74" y="0">onne</tspan><tspan class="cls-9" x="3328.58" y="0">c</tspan><tspan class="cls-10" x="3603" y="0">t</tspan></text>
  <text class="cls-14" transform="translate(1158.18 836.49) scale(.93 1)"><tspan x="0" y="0">Die Plattform für eine f</tspan><tspan class="cls-11" x="2069.94" y="0">r</tspan><tspan x="2145.71" y="0">ei</tspan><tspan class="cls-23" x="2308.83" y="0">e</tspan><tspan x="2414.53" y="0">, star</tspan><tspan class="cls-16" x="2868.04" y="0">k</tspan><tspan x="2972.39" y="0">e Recht</tspan><tspan class="cls-6" x="3648.89" y="0">e</tspan><tspan x="3754.59" y="0">.</tspan></text>
</svg>