<?xml version="1.0" encoding="UTF-8"?>
<svg id="Ebene_1" data-name="Ebene 1" xmlns="http://www.w3.org/2000/svg" xmlns:xlink="http://www.w3.org/1999/xlink" viewBox="0 0 2800 2800">
  <defs>
    <style>
      .cls-1 {
        fill: #fdc525;
      }

      .cls-2 {
        letter-spacing: 0em;
      }

      .cls-3 {
        letter-spacing: -.01em;
      }

      .cls-3, .cls-4, .cls-5, .cls-6 {
        fill: #df1f00;
      }

      .cls-3, .cls-5, .cls-6 {
        font-family: Bitter-Regular, Bitter;
        font-variation-settings: 'wght' 400;
      }

      .cls-7 {
        fill: none;
      }

      .cls-8 {
        font-family: BarlowCondensed-Light, 'Barlow Condensed';
        font-size: 159.44px;
        font-weight: 300;
      }

      .cls-9 {
        letter-spacing: 0em;
      }

      .cls-9, .cls-10, .cls-11, .cls-12, .cls-13 {
        fill: #293d7f;
      }

      .cls-9, .cls-11, .cls-12, .cls-13 {
        font-family: Bitter-Black, Bitter;
        font-variation-settings: 'wght' 900;
        font-weight: 800;
      }

      .cls-14 {
        clip-path: url(#clippath-1);
      }

      .cls-15 {
        letter-spacing: 0em;
      }

      .cls-6 {
        letter-spacing: -.02em;
      }

      .cls-16 {
        fill: #aeadab;
      }

      .cls-17 {
        font-size: 318.18px;
      }

      .cls-18 {
        fill: #555456;
      }

      .cls-11 {
        letter-spacing: -.01em;
      }

      .cls-19 {
        letter-spacing: 0em;
      }

      .cls-20 {
        fill: #222126;
      }

      .cls-12 {
        letter-spacing: 0em;
      }

      .cls-21 {
        fill: #fefefe;
      }

      .cls-22 {
        fill: #140f13;
      }

      .cls-23 {
        letter-spacing: 0em;
      }

      .cls-24 {
        clip-path: url(#clippath);
      }
    </style>
    <clipPath id="clippath">
      <polygon class="cls-7" points="914.78 783.86 1115.09 678.88 1354 572 1585.71 653.92 1863 770 1911.15 857.53 1911.15 1160.66 1869 1330 1803 1490 1645.71 1624.64 1471 1730 1386 1781 1115.09 1589.57 946 1384 871.43 1106.21 888.58 809.57 888.58 792.43 914.78 783.86"/>
    </clipPath>
    <clipPath id="clippath-1">
      <rect class="cls-7" x="311" y="530" width="2123" height="1273.8" transform="translate(-116.61 153.02) rotate(-6.12)"/>
    </clipPath>
  </defs>
  <g class="cls-24">
    <g class="cls-14">
      <g id="flag">
        <rect class="cls-1" x="356.28" y="1409.78" width="2123" height="424.6" transform="translate(-164.9 160.44) rotate(-6.12)"/>
        <rect class="cls-4" x="311" y="987.6" width="2123" height="424.6" transform="translate(-120.13 153.21) rotate(-6.12)"/>
        <rect x="265.72" y="565.42" width="2123" height="424.6" transform="translate(-75.37 145.97) rotate(-6.12)"/>
      </g>
    </g>
  </g>
  <g>
    <path class="cls-4" d="M1852.98,1467.99c62.51-94.49,100.96-211.32,114.29-347.26h0c9.55-97.56,5.73-194.64.17-285.02-3.58-58.18-43.99-106.82-100.57-121.03-225.36-56.6-338.03-126.56-385.13-163.22-48.21-37.52-115.54-37.52-163.75,0-47.1,36.66-159.77,106.62-385.13,163.22-56.57,14.21-96.99,62.85-100.57,121.03-5.56,90.37-9.39,187.45.17,285.02,13.33,135.93,51.78,252.77,114.29,347.25,41.81,63.2,100.29,123.93,173.82,180.52,62.61,48.18,136.56,93.74,219.82,135.44,18.62,9.32,39.05,13.99,59.48,13.99s40.85-4.66,59.48-13.99c83.25-41.69,157.21-87.26,219.82-135.44,73.53-56.59,132.02-117.32,173.82-180.52ZM1625.4,1578.65c-58.15,44.75-127.3,87.3-205.53,126.48-12.53,6.27-27.49,6.27-40.02,0-78.23-39.18-147.38-81.73-205.53-126.48-65.8-50.64-117.64-104.23-154.06-159.3-54.5-82.38-88.17-185.74-100.08-307.22-8.95-91.42-5.25-184.28.09-271.01,1.21-19.68,14.9-36.14,34.06-40.95,103.46-25.99,295.32-83.81,417.8-179.16,8.16-6.35,17.95-9.53,27.73-9.53s19.57,3.18,27.73,9.53c122.49,95.34,314.34,153.17,417.8,179.16,19.16,4.81,32.85,21.27,34.06,40.95,5.33,86.73,9.04,179.59.09,271-11.91,121.48-45.58,224.84-100.08,307.22-36.42,55.06-88.26,108.66-154.06,159.29Z"/>
    <path class="cls-10" d="M1368.38,228.06v273.28c10.33-2.12,20.88-3.2,31.48-3.2s21.16,1.08,31.48,3.2V228.8c35.16-12.53,60.34-46.1,60.34-85.56,0-50.16-40.66-90.82-90.82-90.82s-90.82,40.66-90.82,90.82c0,38.71,24.23,71.75,58.35,84.82Z"/>
    <path class="cls-10" d="M2406.18,1015.38c-38.71,0-71.75,24.23-84.82,58.34h-325.24c-.91,16.03-2.1,32.11-3.66,48.23l-.13,1.23c-.44,4.52-.92,9.02-1.41,13.5h329.69c12.53,35.16,46.1,60.34,85.57,60.34,50.16,0,90.82-40.66,90.82-90.82s-40.66-90.82-90.82-90.82Z"/>
    <path class="cls-10" d="M2331.62,676.26v99.41c0,10.41-8.47,18.89-18.89,18.89h-327.68c4.11,12.6,6.67,25.88,7.52,39.6.48,7.73.94,15.53,1.39,23.36h318.77c45.13,0,81.85-36.72,81.85-81.85v-99.41c34.64-12.8,59.35-46.12,59.35-85.21,0-50.16-40.66-90.82-90.82-90.82s-90.82,40.66-90.82,90.82c0,39.09,24.7,72.41,59.34,85.21Z"/>
    <path class="cls-10" d="M1747.61,653.92v-278.67c-.01-10.41,8.46-18.89,18.88-18.89h275.14c12.8,34.64,46.12,59.35,85.21,59.35,50.16,0,90.82-40.66,90.82-90.82,0-50.16-40.66-90.82-90.82-90.82-39.09,0-72.41,24.7-85.21,59.34h-275.14c-45.13,0-81.85,36.72-81.85,81.85v255.98c19.39,7.54,40.33,15.15,62.97,22.69Z"/>
    <path class="cls-10" d="M1431.34,2042.3v-222.35c-10.34,2.09-20.9,3.17-31.48,3.17s-21.14-1.08-31.48-3.17v223.1c-34.11,13.07-58.35,46.11-58.35,84.82,0,50.16,40.66,90.82,90.82,90.82s90.82-40.66,90.82-90.82c0-39.46-25.18-73.03-60.34-85.56Z"/>
    <path class="cls-10" d="M2394.58,1536.15v-99.41c0-45.13-36.72-81.85-81.85-81.85h-373.54c-8.45,21.76-17.79,42.75-28.04,62.96h401.58c10.41,0,18.89,8.47,18.89,18.89v99.41c-34.64,12.8-59.34,46.12-59.34,85.21,0,50.16,40.66,90.82,90.82,90.82s90.82-40.66,90.82-90.82c0-39.09-24.7-72.41-59.35-85.21Z"/>
    <path class="cls-10" d="M2126.84,1796.7c-39.09,0-72.41,24.7-85.21,59.35h-275.14c-10.41,0-18.89-8.47-18.89-18.89v-212.52c-16.75,14.87-34.45,29.48-53.09,43.82-3.26,2.51-6.55,5-9.86,7.49v161.21c-.01,45.13,36.71,81.85,81.84,81.85h275.14c12.8,34.64,46.12,59.34,85.21,59.34,50.16,0,90.82-40.66,90.82-90.82,0-50.16-40.66-90.82-90.82-90.82Z"/>
    <path class="cls-10" d="M479.11,1136.69h329.69c-.49-4.48-.97-8.98-1.41-13.5-1.61-16.52-2.86-33.03-3.78-49.46h-325.25c-13.07-34.11-46.11-58.34-84.82-58.34-50.16,0-90.82,40.66-90.82,90.82s40.66,90.82,90.82,90.82c39.47,0,73.04-25.18,85.57-60.34Z"/>
    <path class="cls-10" d="M405.14,676.27v99.41c0,45.13,36.72,81.85,81.85,81.85h318.77c.44-7.83.91-15.61,1.39-23.36.84-13.73,3.41-27,7.52-39.6h-327.68c-10.41,0-18.89-8.47-18.89-18.89v-99.41c34.64-12.8,59.34-46.12,59.34-85.21,0-50.16-40.66-90.82-90.82-90.82s-90.82,40.66-90.82,90.82c0,39.09,24.7,72.41,59.35,85.21Z"/>
    <path class="cls-10" d="M672.88,415.71c39.09,0,72.41-24.7,85.21-59.35h275.14c10.41,0,18.89,8.47,18.89,18.89v278.67c22.63-7.54,43.57-15.15,62.95-22.69v-255.98c.01-45.13-36.71-81.85-81.84-81.85h-275.14c-12.8-34.64-46.12-59.34-85.21-59.34-50.16,0-90.82,40.66-90.82,90.82,0,50.16,40.66,90.82,90.82,90.82Z"/>
    <path class="cls-10" d="M468.11,1536.15v-99.41c0-10.41,8.47-18.89,18.89-18.89h401.58c-10.25-20.21-19.59-41.2-28.04-62.96h-373.54c-45.13,0-81.85,36.72-81.85,81.85v99.41c-34.64,12.8-59.35,46.12-59.35,85.21,0,50.16,40.66,90.82,90.82,90.82s90.82-40.66,90.82-90.82c0-39.09-24.7-72.41-59.34-85.21Z"/>
    <path class="cls-10" d="M1105.22,1668.46c-18.64-14.34-36.34-28.95-53.1-43.82v212.52c.01,10.41-8.46,18.89-18.88,18.89h-275.14c-12.8-34.64-46.12-59.35-85.21-59.35-50.16,0-90.82,40.66-90.82,90.82,0,50.16,40.66,90.82,90.82,90.82,39.09,0,72.41-24.7,85.21-59.34h275.14c45.13,0,81.85-36.72,81.85-81.85v-161.21c-3.32-2.49-6.61-4.99-9.87-7.49Z"/>
  </g>
  <g>
    <path class="cls-22" d="M1089.17,767.35c152.55-90.72,339.14-110.18,511.91-80.39-26.38,10.09-51.74,22.59-76.37,36.4,69.62,17.93,135.59,48.86,195.53,88.33-25.77.59-51.43,3.45-76.82,7.78,77.07,50.4,139.9,118.94,196.59,190.78-33.07-17.26-67.21-32.92-103.06-43.43,26.9,30.93,49.57,65.33,70.37,100.58,49.41,86.55,82.97,184.96,80.06,285.58-15.34-49.28-43.17-94.58-79.76-130.94,9.63,47.49,13.33,96.43,8.16,144.7-4.57,43.68-13.75,87.84-34.81,126.78,1.15-47.74-9.73-96.19-33.29-137.86.89,77.26-15.47,158.53-62.52,221.39,19.22-47.7,22.76-101.5,11.81-151.61-22.17,77.92-71.41,150.57-142.62,191.15,46.87-44.37,58.21-117.15,34.53-175.97-12.6,56.93-31.73,114.38-68.07,160.77.49-37.1-6.43-74.16-18.27-109.25-17.45,29.83-27.66,63.09-39.91,95.21-26.85-42.06-33.74-93.01-42.58-141.18-16.37,38.79-24.5,80.56-29.19,122.24-24.81-31.39-37.28-70.93-42.39-110.2-5.75-37.7-7.84-75.79-11.2-113.75-6.88,29.15-8.65,59.32-9.16,89.21-.31,39.22,3.67,80.28,24.55,114.48-18.74-12.53-32.88-30.65-45.19-49.26-25.56-38.38-40.23-82.69-50.02-127.42-17.29,32.37-26.51,69.03-27.52,105.68-24.72-51.54-17.13-111.2-11.19-166.14-21.54,28-31.27,63.37-34.51,98.07-11.69-62.8,20.41-124.91,7.68-187.42-10.08,12.67-20.13,25.36-30.59,37.72-1.24-25.7-4.18-52.87-18.88-74.77-17.73-26.85-48.21-40.84-76.48-53.56-39.51,12.23-78.78,25.43-118.04,38.48-12.8,47.68-9.23,100.71,16.03,143.8-37.32-22.97-68.05-56.46-88.14-95.38-41.46-79.74-32.86-179.69,12.33-255.98,30.8-51.36,81.99-88.32,138.48-106.83-3.71-13.38-1.46-28.08,6.4-39.56,13.91-20.87,35.4-34.94,56.15-48.23Z"/>
    <path class="cls-21" d="M1111.17,776.55c126.36-70.69,275.2-93.68,418.35-80.92-25.26,9.52-49.84,21.05-72.89,35.17,57.65,4.99,113.63,22.78,165.94,46.99-75.07-13.83-154.52-19.33-228.43,3.51,13.69.28,27.48-1.6,41.1.48-73.87,5.39-142.91,35.87-206.46,72.25-22.78,14.3-54.24,21.74-77.67,4.76-7.78-4.94-6.38-14.81-3-22-7.64,2.65-15.29,5.48-23.34,6.65.61-3.14,1.22-6.3,1.74-9.46-2.27,2.82-4.29,5.84-6.15,8.94-25-2.69-51.06-3.22-75.11,5.19-3.62-12.11,3.36-23.61,11.46-32.04,15.56-16.37,35.04-28.31,54.48-39.51Z"/>
    <path class="cls-4" d="M1394.13,781.29c73.91-22.84,153.36-17.33,228.43-3.51,9.24,3.17,17.63,8.63,26.34,13.06-33.15,4.36-67.54,8.76-97.53,24.45,62.76,20.09,119.35,56.31,169.95,97.95-32.19-8.65-66.18-16.6-99.51-10.14,44.53,33.41,75.64,80.56,106.52,126.04,28.78,43.2,57,86.81,84.25,130.98-45.78-54.03-88.36-111.48-139.6-160.68,38.12,51.54,75.01,104.52,104.45,161.61-29.67-34.36-56.91-71.41-91.41-101.25,25.92,41.94,51.31,84.66,69.31,130.72-32.74-42.41-66.29-84.79-106.2-120.78,29.49,49.71,53.83,102.82,69.41,158.55-22.09-40.74-47.85-80.1-80.15-113.5,11.95,37.22,16.7,76.32,18.66,115.23,2.62,74.36-4.88,148.56-12.17,222.44-2.34-57.54-13.02-114.76-31.34-169.41-9.22-26.73-19.33-53.48-34.53-77.48.04,53.54-16.75,106.57-47.53,150.35,7.31-54.18-5.72-108.42-18.09-160.89-32.86,62.6-42.02,134.5-44.58,204.26-7.02-85.33.68-171.84,20.45-255.09,6.37-18.89,6.97-40.22-2.99-58.03,11.8,6.82,22.44,15.45,32.5,24.62-5.75-16.44-13.39-32.18-22.21-47.18,12.08.32,24.18.31,36.27.55-11.99-12.37-27.14-22.48-44.42-25.14,5.9,4.69,11.83,9.34,17.3,14.55-14.43-1.44-27.74-7.75-40.47-14.3,7.62,10.4,15.16,20.94,21.01,32.47-30.49-22.71-62.9-43.99-100.03-54,13.64-3.15,27.84-1.02,41.55-3.02-18.52-4.41-37.01-9.42-54.58-16.82,16.46.02,34.2.24,48.69-8.73,14.37-11.05,29.86-21.02,48.07-24.13-10.23-2.68-20.87-1.12-31.09.68,17.48-13.47,39.17-19.33,60.8-21.33-12.13-3.17-24.74-2.18-37.14-1.96,12.29-6.41,25.23-12.19,39.14-13.8,44.53-6.11,89.35,3.13,132.04,15.32-33.52-16.96-70.24-29-107.82-32-27.12-6.21-57.89-8.75-78.37-29.91-14.05-14.77-21.77-36.65-18.4-56.86,9.54-22.5,35.43-30.25,56.42-38.28-70.86,8.65-142.58,27.1-202.48,67.36-15.49,10-29.5,22.91-47.32,28.79-24.98,8.62-53.63,7.23-77.43-4.29-10.48-4.99-17.44-15.08-20.78-25.94-1.43,4.48-2.44,9.11-3.97,13.57-6.39-5.17-7.86-15.01-8.81-22.95,8.05-1.17,15.7-4,23.34-6.65-3.38,7.19-4.78,17.06,3,22,23.43,16.99,54.89,9.55,77.67-4.76,63.55-36.38,132.59-66.86,206.46-72.25-13.62-2.07-27.41-.19-41.1-.48Z"/>
    <path class="cls-4" d="M1045.23,848.1c24.05-8.41,50.11-7.89,75.11-5.19-2.28,5.45-4.54,10.9-6.5,16.48-21.85-3.23-44.21-6.53-66.08-1.68-.88-3.2-1.7-6.4-2.54-9.61Z"/>
    <path class="cls-1" d="M1321.06,863.12c9.86-5.94,19.16-12.98,29.47-18.04,18.16,7.95,31.59,26.19,32.98,46.09,2.34,23.3-10.85,46.9-31.49,57.74-27.68,15.59-68.07,2.59-78.02-28.43,3.31-8.25,10.34-14.63,15.92-21.5,4.77,20.59,33.83,27.84,48.51,13.21,7.94-6.29,9.05-16.7,9.11-26.06,4.73-8.67-2.08-16.97-11.39-16.48-5.31-1.44-9.85-4.83-15.09-6.52Z"/>
    <path class="cls-21" d="M1329.36,882.99c-2.35-5.85,2.36-10.44,6.79-13.35,9.32-.49,16.12,7.81,11.39,16.48-5.62,3.63-15.8,4.81-18.19-3.13Z"/>
    <path class="cls-21" d="M1038.97,874.01c6.33-1.73,12.01,2.37,17.59,4.65,13.69,5.89,27.77,11.61,39.46,21.09,2.01,1.49,4.24,5.48.94,6.82-15.95,9.56-32.77,18.28-46.43,31.09,26.66-11.3,52.1-25.63,79.84-34.33,25.43,27.36,54.09,51.67,86.85,69.85,47.52,28.11,99.08,52.1,154.33,59.23,12.51-.95,24.45,5.3,32.61,14.51-26.56-.01-52.21-8.07-78.27-12.19-94.89-17.57-195.33-24.1-288.18,6.97l-1.92.06c71.19-29.22,150.83-28.58,226.23-20.78-14.49-6.32-27.51-15.49-41.54-22.48-28.75-1.57-57.29,5.1-84.97,12.27,24.44-11.2,50.92-17.62,77.56-20.79-7.93-5.93-16.3-11.2-24.59-16.59-11.7-7.88-27.21-3.51-39.14-10.98-22.46-13.89-47.12-26.82-73.98-28.17-21.72,7.6-40.48,22.42-56.68,38.48-24.51,30.09-29.87,71.26-27.3,108.85-28.68,27.85-53.39,60.87-66.02,99.16,3.9-23.65,9.98-47.81,23.15-68.15,9.86-13.98,24.8-23.75,40.62-29.74-6.24-39.33,3.81-79.81,24.34-113.53,4.6-9.07,12.72-15.65,19.73-22.78,18.65-17.11,39.94-31.11,62.47-42.58-12.73-11.92-29.81-16.93-45.04-24.71-9.9-5.16-20.93,0-30.56,3.25-37.31,14.76-71.17,38.48-97.78,68.52-18.02,20.16-28.02,46.02-33.9,72.08-6.15,25.23-8.91,51.15-9.95,77.07-1.81-38.34,4.03-77.2,18.08-112.97,14.43-36,44.86-62.48,76.42-83.46,20.39-12.99,42.19-24.68,66.01-29.72Z"/>
    <path class="cls-18" d="M1020.08,882.49c9.63-3.25,20.66-8.4,30.56-3.25,15.23,7.77,32.31,12.78,45.04,24.71-22.53,11.47-43.82,25.47-62.47,42.58-26.95,2.58-50.92,16.99-74.26,29.68,2.42-4.85,4.74-9.81,5.73-15.17,19.65-22.37,43.96-39.82,68.6-56.24,5.13-3.97,13.66-9.68,10.65-17.18-6.66-5.4-16.25-3.36-23.86-1.3-30.88,10.13-58.11,31.02-75.95,58.19-14.96,23.33-25.22,49.27-33.64,75.57-.32-.66-.97-1.97-1.29-2.64-7.44,5.46-10.18,14.7-16.1,21.42-4.43-2.54-1.69-11.14-4.7-15.76,5.88-26.06,15.88-51.93,33.9-72.08,26.61-30.04,60.47-53.77,97.78-68.52Z"/>
    <path class="cls-21" d="M1020.08,886.32c7.6-2.06,17.19-4.1,23.86,1.3,3.02,7.5-5.52,13.21-10.65,17.18-24.64,16.42-48.95,33.87-68.6,56.24-13.36,14.27-24.83,30.32-33.74,47.75-17.67,33.34-27.75,70.24-32.28,107.57-1.84-32.33,2.27-65.3,11.83-96.28,8.42-26.3,18.67-52.25,33.64-75.57,17.84-27.17,45.07-48.06,75.95-58.19Z"/>
    <path class="cls-22" d="M1080.3,929.79c15.07-9.45,32.01-16.01,48.87-21.66,15.79,15.98,30.93,32.59,45.3,49.86-28.96-16.01-61.63-23.75-94.17-28.2Z"/>
    <path class="cls-21" d="M1414.35,950.77c26.73-32.73,72.11-37.59,111.54-38.83,37.58,3,74.3,15.04,107.82,32-42.68-12.19-87.51-21.43-132.04-15.32-13.91,1.61-26.85,7.4-39.14,13.8,12.4-.22,25.02-1.21,37.14,1.96-21.64,2-43.33,7.86-60.8,21.33,10.22-1.8,20.85-3.36,31.09-.68-18.21,3.11-33.7,13.08-48.07,24.13-14.48,8.97-32.23,8.75-48.69,8.73-15.26-2.55-30.75-4.99-45.4-10.12,20.87,2.05,41.81,4.81,62.79,2.31-6.48-4.47-14.19-6.62-20.96-10.61,18.97-1.37,33.7-14.24,44.72-28.69Z"/>
    <path class="cls-16" d="M1018.69,972.73c16.2-16.06,34.96-30.88,56.68-38.48,26.86,1.35,51.51,14.28,73.98,28.17,11.93,7.47,27.44,3.1,39.14,10.98,8.29,5.39,16.66,10.66,24.59,16.59-26.64,3.17-53.12,9.59-77.56,20.79,27.68-7.17,56.22-13.84,84.97-12.27,14.02,6.99,27.05,16.16,41.54,22.48-75.41-7.81-155.04-8.44-226.23,20.78l1.92-.06c-18.22,9.6-31.23,26.29-46.32,39.89-2.58-37.59,2.78-78.76,27.3-108.85Z"/>
    <path class="cls-20" d="M958.95,976.21c23.34-12.69,47.31-27.1,74.26-29.68-7.01,7.14-15.13,13.71-19.73,22.78-17.76,8.37-28.56,25.68-41.78,39.37,1.69-9.95,6.93-18.75,11.61-27.53-19.46,9.16-34.07,25.8-48.29,41.49-.58-4.82-1.46-9.69-4.07-13.86,8.9-17.42,20.37-33.48,33.74-47.75-.99,5.36-3.31,10.32-5.73,15.17Z"/>
    <path class="cls-22" d="M1062.7,956c6.26-4.12,13.16-11.37,21.21-6.92,19.1,8.49,39.95,15.04,55.88,29.01-19.99,31.59-61.05,34.51-92.35,49.01-16.75,11.39-37.92-6.82-40.89-23.55,13.21-21.55,36.4-33.11,56.15-47.55Z"/>
    <path class="cls-21" d="M1139.79,978.09l.84-1.21c-.93,13.08-14.12,20.19-24.02,26.51-22.9,11.6-48.03,17.86-71.76,27.55-16.42,8.76-41.24-9.59-38.3-27.39,2.98,16.73,24.14,34.94,40.89,23.55,31.3-14.5,72.37-17.42,92.35-49.01Z"/>
    <path class="cls-21" d="M1135.44,1056.96c64.24-13.56,131.3-10.76,194.77,5.57,28.8,7.41,58.82,16.75,88.78,11.31,8.92-1.06,16.04-9.61,11.99-18.55,1.76.99,3.54,2,5.28,3.08-.64-.02-1.92-.08-2.56-.12,6.84,5.71,6.3,16.83-2.46,20.34-22.82,9.78-48.12,1.79-71.93,1.87,17.93,5.98,37.17,7.76,54.67,15.14-32.82-.03-65.13-7.32-97.59-11.42-60.44-12.51-122.67-15.95-184.1-10,2.28-2.37,4.78-4.73,8.04-5.63,23.69-7.36,48.69-7.85,73.15-10.43-50.87-3.36-101.22,9.65-148.93,26.12-15.92,6.3-32.34,12.12-46.5,21.94-8.36,4.36-16.74,8.72-25.07,13.17,40.91-32.71,91.45-51.99,142.45-62.4Z"/>
    <path class="cls-16" d="M1064.55,1084.26c47.71-16.47,98.06-29.49,148.93-26.12-24.46,2.58-49.46,3.07-73.15,10.43-3.26.9-5.76,3.26-8.04,5.63,61.44-5.95,123.66-2.51,184.1,10-99.31-10.39-203.66-15.5-298.34,22,14.16-9.82,30.58-15.63,46.5-21.94Z"/>
    <path class="cls-16" d="M1433.7,1058.26c.64.04,1.92.09,2.56.12,4.05,1.53,7.35,4.55,11.02,6.81-.33.58-.99,1.73-1.31,2.31,4.94,4.55,9.74,12.27,4.45,18.46-9.01,9.69-24.14,10.22-36.43,9.67-17.5-7.39-36.74-9.16-54.67-15.14,23.8-.08,49.1,7.91,71.93-1.87,8.76-3.51,9.31-14.63,2.46-20.34Z"/>
    <path class="cls-20" d="M1117.12,1122.16c24.34.76,45.05,15.14,64.31,28.57,85.48,64.08,161.17,142.94,215.2,235.55,9.23-30.85,8.8-64.18,7.38-96.21,12.88,14.38,21.06,32.93,27.84,50.89-6.31-6.37-8.73-15.88-16.39-20.98-4.55,33.54-7.18,68.11-19.14,100-12.73-46.32-39.1-88.37-74.21-120.98-14.83,35.17-22.55,75.1-46.9,105.53,2.37-26.02-3.17-51.89-10.46-76.71,7.6,7.28,10.65,17.84,17.86,25.41,8.72-18.04,8.54-39.24,4.77-58.55-6.57-27.98-26.96-49.54-47.1-68.79-34.83-31.47-70.46-62.2-107.77-90.73-5.16-4.29-11.93-6.95-15.39-13Z"/>
  </g>
  <text class="cls-17" transform="translate(263 2548.16)"><tspan class="cls-6" x="0" y="0">P</tspan><tspan class="cls-5" x="181.68" y="0">at</tspan><tspan class="cls-3" x="470.9" y="0">r</tspan><tspan class="cls-5" x="607.4" y="0">iot</tspan><tspan class="cls-11" x="1000.35" y="0">C</tspan><tspan class="cls-9" x="1192.53" y="0">onne</tspan><tspan class="cls-12" x="1968.24" y="0">c</tspan><tspan class="cls-13" x="2130.51" y="0">t</tspan></text>
  <text class="cls-8" transform="translate(279 2737.28)"><tspan x="0" y="0">Die Plattform für eine f</tspan><tspan class="cls-19" x="1223.98" y="0">r</tspan><tspan x="1268.79" y="0">ei</tspan><tspan class="cls-23" x="1365.24" y="0">e</tspan><tspan x="1427.74" y="0">, star</tspan><tspan class="cls-2" x="1695.91" y="0">k</tspan><tspan class="cls-15" x="1757.62" y="0">e Recht</tspan><tspan class="cls-23" x="2157.64" y="0">e</tspan><tspan x="2220.14" y="0">.</tspan></text>
</svg>